<?xml version="1.0" encoding="utf-8"?>
<!-- Generator: Adobe Illustrator 24.0.0, SVG Export Plug-In . SVG Version: 6.00 Build 0)  -->
<svg version="1.1" id="Layer_1" xmlns="http://www.w3.org/2000/svg" xmlns:xlink="http://www.w3.org/1999/xlink" x="0px"
	 y="0px"
	 width="120px" height="41px" viewBox="0 0 120 41" style="enable-background:new 0 0 120 41;" xml:space="preserve">
<style type="text/css">
	.st0{fill:#68D124;}
	.st1{fill:#363A41;}
</style>
	<g>
	<g>
		<path class="st0" d="M13.7,3.7c0,5.3,1.1,9.2,3.3,11.8c1.7,2,3.5,3.1,5.6,3.5v4.2c-3.2-0.4-6-1.8-8.6-4.2c-1.1-1-2-2.1-2.7-3.6
			c-0.8,1.4-1.7,2.6-2.7,3.6C6,21.3,3.1,22.7,0,23.1V19c2.1-0.4,3.9-1.5,5.6-3.5C7.8,12.9,9,9,9,3.7V2.2h4.7V3.7z M5.9,25.8h26.2v3
			v11.5h-4.8V29.9H5.9V25.8z M27.3,23.5V1.6h4.8v21.9H27.3z"/>
		<path class="st0" d="M40.5,18V1.9h4.8v4.2h17.8V1.9h4.8v16.2H57v3.1h15.2v4.1H37v-4.1h15.2v-3.1h-5.6L40.5,18z M68,30.2v9.7h-21
			c-3.9,0-5.8-1.7-5.8-5.1v-7.2h24.1C67.1,27.7,68,28.5,68,30.2z M45.3,14.1h17.8v-4H45.3L45.3,14.1z M61.5,31.7H46v2.4
			c0,1.3,0.6,1.8,2,1.8h15.2v-2.5C63.2,32.4,62.4,31.7,61.5,31.7z"/>
	</g>
</g>
	<g>
	<path class="st1" d="M99.8,0.3c-5.6,0-10.7,2.3-14.4,6h13.4c1.2,0,2.1,0.9,2.1,2.1v19.1c0,1.2-0.9,2.1-2.1,2.1h-7.5
		c-0.2,0-0.4-0.2-0.5-0.4c-0.2-2.6-2.4-4.6-5-4.6c-2.2,0-4,1.4-4.8,3.3c0.3,0.8,0.7,1.6,1.1,2.3c0-0.1,0-0.1,0-0.2
		c0-2,1.6-3.6,3.6-3.6c2,0,3.6,1.6,3.6,3.6s-1.6,3.6-3.6,3.6c-0.5,0-1-0.1-1.5-0.3c3.7,4.5,9.3,7.4,15.6,7.4
		c11.2,0,20.2-9,20.2-20.2S111,0.3,99.8,0.3z M109.1,33.7c-2,0-3.6-1.6-3.6-3.6s1.6-3.6,3.6-3.6c2,0,3.6,1.6,3.6,3.6
		S111.1,33.7,109.1,33.7z M115.3,29.7h-0.7c-0.2,0-0.4-0.2-0.5-0.4c-0.2-2.6-2.4-4.6-5-4.6c-2.6,0-4.7,1.9-5,4.4
		c0,0.3-0.4,0.5-0.7,0.3c-0.6-0.4-0.9-1-0.9-1.7V14.5c0-1.2,0.9-2.1,2.1-2.1h4.8c0.7,0,1.4,0.3,1.8,0.9l5.7,7.2
		c0.3,0.4,0.5,0.9,0.5,1.4v5.7C117.4,28.7,116.5,29.7,115.3,29.7z"/>
		<path class="st1" d="M111.3,15.8c-0.2-0.3-0.6-0.5-1-0.5H107c-0.3,0-0.5,0.2-0.5,0.5v4.9c0,0.3,0.2,0.5,0.5,0.5h7.2
		c0.3,0,0.5-0.2,0.5-0.5v-0.3c0-0.3-0.1-0.6-0.3-0.8L111.3,15.8z"/>
</g>
	<path class="st0" d="M97,10.7c0,0-5.9,1.3-6.7,6.7c-2.3-3.5-8-3.3-8-3.3c1.2,7.2,6.4,7.3,8.3,7.1c0,0,0,0,0,0
	C90.6,21.2,98.6,20.6,97,10.7z"/>
</svg>
